# xmcd CD database file
#
# Track frame offsets:
#	182
#	21982
#	41530
#	56465
#	89740
#	111290
#	132110
#	179080
#	193352
#	218382
#	237992
#	266417
#	285230
#	297235
#	320887
#
# Disc length: 4712 seconds
#
# Revision: 2
# Processed by: cddbd v1.5.2PL0 Copyright (c) Steve Scherf et al.
# Submitted via: CDex 1.51
#
DISCID=e712660f
DTITLE=Brinsley Schwarz - Brinsley Schwarz - Despite it All
DYEAR=1900
DGENRE=
TTITLE0=Hymn To Me
TTITLE1=Shining Brightly
TTITLE2=Rock And Roll Women
TTITLE3=Lady Constant
TTITLE4=What Do You Suggest?
TTITLE5=Mayfly
TTITLE6=Ballad Of A Has-Been Beauty Queen
TTITLE7=Country Girl
TTITLE8=The Slow One
TTITLE9=Funk Angel
TTITLE10=Piece Of Home
TTITLE11=Love Song
TTITLE12=Starship
TTITLE13=Ebury Down
TTITLE14=Old Jarrow
EXTD=Collection of Brinsley Schwarz's first two albums.  Known on LPs as "Despite It All"
EXTT0=Brinsley Schwarz
EXTT1=Brinsley Schwarz
EXTT2=Brinsley Schwarz
EXTT3=Brinsley Schwarz
EXTT4=Brinsley Schwarz
EXTT5=Brinsley Schwarz
EXTT6=Brinsley Schwarz
EXTT7=Brinsley Schwarz
EXTT8=Brinsley Schwarz
EXTT9=Brinsley Schwarz
EXTT10=Brinsley Schwarz
EXTT11=Brinsley Schwarz
EXTT12=Brinsley Schwarz
EXTT13=Brinsley Schwarz
EXTT14=Brinsley Schwarz
PLAYORDER=
